<svg width="101" height="40" viewBox="0 0 101 40" fill="none" xmlns="http://www.w3.org/2000/svg">
<path fill-rule="evenodd" clip-rule="evenodd" d="M9 8H0V32H9V27.7826H5.34778V12.1826H9V8Z" fill="white"/>
<path fill-rule="evenodd" clip-rule="evenodd" d="M15 8H24V32H15V27.7826H18.6522V12.1826H15V8Z" fill="white"/>
<path d="M46.784 10.4H51.544V30H46.784V21.712H38.72V30H33.96V10.4H38.72V17.932H46.784V10.4ZM69.4242 10.4H74.1842V30H67.6322L61.3322 15.412V30H56.5722V10.4H63.6282L69.4242 23.84V10.4ZM98.3077 19.332V23.112H94.7237C95.7597 23.7 96.3757 24.568 96.3757 25.744C96.3757 28.32 93.2677 30.448 88.6757 30.448C82.3757 30.448 78.3717 26.332 78.3717 20.116C78.3717 14.04 82.2077 9.952 88.3957 9.952C93.4637 9.952 97.1877 12.696 96.7677 17.736H91.8677C92.0917 15.216 90.6077 13.872 88.3117 13.872C85.1477 13.872 83.2717 16.392 83.2717 20.116C83.2717 23.98 85.2877 26.528 88.5637 26.528C90.2437 26.528 91.4757 25.856 91.4757 24.876C91.4757 23.84 90.0757 23.112 87.8357 23.112V19.332H98.3077Z" fill="white"/>
</svg>
