<svg width="12" height="18" viewBox="0 0 12 18" fill="none" xmlns="http://www.w3.org/2000/svg">
<g clip-path="url(#clip0_59_414)">
<path d="M4 4C4 5.10457 4.89543 6 6 6C7.10457 6 8 5.10457 8 4C8 2.89543 7.10457 2 6 2C4.89543 2 4 2.89543 4 4Z" fill="#1A1A1B"/>
<path d="M3 13C3 14.6569 4.34315 16 6 16C7.65685 16 9 14.6569 9 13C9 11.3431 7.65685 10 6 10C4.34315 10 3 11.3431 3 13Z" fill="#1A1A1B"/>
</g>
<defs>
<clipPath id="clip0_59_414">
<rect width="18" height="12" fill="white" transform="matrix(0 1 -1 0 12 0)"/>
</clipPath>
</defs>
</svg>
