<svg width="60" height="60" viewBox="0 0 60 60" fill="none" xmlns="http://www.w3.org/2000/svg">
<path d="M28.8875 22.5901L36.88 27.9201C37.2224 28.1484 37.5031 28.4602 37.6973 28.823C37.8915 29.1859 37.9931 29.591 37.9931 30.0026C37.9931 30.4141 37.8915 30.8193 37.6973 31.1821C37.5031 31.5449 37.2224 31.8542 36.88 32.0826L28.8875 37.4126C28.511 37.6638 28.0734 37.808 27.6213 37.83C27.1692 37.8519 26.7197 37.7508 26.3206 37.5372C25.9215 37.3237 25.5879 37.0059 25.3553 36.6176C25.1227 36.2293 24.9999 35.7852 25 35.3326V24.6751C24.999 24.222 25.1212 23.7772 25.3534 23.3882C25.5856 22.9993 25.9191 22.6807 26.3184 22.4665C26.7176 22.2524 27.1675 22.1508 27.62 22.1726C28.0726 22.1943 28.5107 22.3386 28.8875 22.5901Z" stroke="white" stroke-width="2" stroke-linecap="round" stroke-linejoin="round"/>
<path d="M50.7873 38.6104C51.918 35.8806 52.5 32.9547 52.5 30C52.5 24.0326 50.1295 18.3097 45.9099 14.0901C41.6903 9.87053 35.9674 7.5 30 7.5C24.0326 7.5 18.3097 9.87053 14.0901 14.0901C9.87053 18.3097 7.5 24.0326 7.5 30C7.5 32.9547 8.08198 35.8806 9.21271 38.6104C10.3434 41.3402 12.0008 43.8206 14.0901 45.9099C16.1794 47.9992 18.6598 49.6566 21.3896 50.7873C24.1194 51.918 27.0453 52.5 30 52.5C32.9547 52.5 35.8806 51.918 38.6104 50.7873C41.3402 49.6566 43.8206 47.9992 45.9099 45.9099C47.9992 43.8206 49.6566 41.3402 50.7873 38.6104Z" stroke="white" stroke-width="2" stroke-linecap="round" stroke-linejoin="round"/>
</svg>
